<svg xmlns="http://www.w3.org/2000/svg" version="1.1" xmlns:xlink="http://www.w3.org/1999/xlink" xmlns:svgjs="http://svgjs.dev/svgjs" width="128" height="128" viewBox="0 0 128 128"><g transform="matrix(0.8046875,0,0,0.8046875,12.760760770109691,20.028927367489985)"><svg viewBox="0 0 95 81" data-background-color="#ffffff" preserveAspectRatio="xMidYMid meet" height="109" width="128" xmlns="http://www.w3.org/2000/svg" xmlns:xlink="http://www.w3.org/1999/xlink"><g id="tight-bounds" transform="matrix(1,0,0,1,-0.24049249358816382,0.10675880055792675)"><svg viewBox="0 0 95.481 80.78600701507757" height="80.78600701507757" width="95.481"><g><svg viewBox="0 0 95.481 80.78600701507757" height="80.78600701507757" width="95.481"><g><svg viewBox="0 0 95.481 80.78600701507757" height="80.78600701507757" width="95.481"><g id="textblocktransform"><svg viewBox="0 0 95.481 80.78600701507757" height="80.78600701507757" width="95.481" id="textblock"><g><svg viewBox="0 0 95.481 80.78600701507757" height="80.78600701507757" width="95.481"><g><svg viewBox="0 0 95.481 80.78600701507757" height="80.78600701507757" width="95.481"><g><svg xmlns="http://www.w3.org/2000/svg" data-name="Layer 1" viewBox="4.103345153963826 8.269787269906562 71.5554616953942 60.5427260972469" x="0" y="0" height="80.78600701507757" width="95.481" class="icon-icon-0" data-fill-palette-color="accent" id="icon-0"><path d="M4.217 45.662c-0.48 2.185 0.598 2.273 2.521 2.331s21.324-1.145 27.864-2.701c8.687-2.066 12.589-4.396 13.662-4.967 7.008-3.729 12.412-10.934 16.204-16.05 0.037 0.045 0.066 0.089 0.109 0.135 0.517 0.55 1.256 1.337 2.055 1.323 0.673-0.012 1.49-1.011 2.624-3.258A38.239 38.239 0 0 0 72.155 14.5c0.609-2.806 0.862-5.22-0.085-5.828s-2.059-0.779-5.018 1.344-8.646 6.647-9.224 7.625a2.078 2.078 0 0 0-0.363 1.473 2.279 2.279 0 0 0 1.391 1.72 2.804 2.804 0 0 0 1.223 0.125 40.76 40.76 0 0 1-12.4 12.213c-5.042 3.08-13.637 5.667-21.904 7.038-7.777 1.29-17.888 2.505-18.688 2.695A3.368 3.368 0 0 0 4.217 45.662Z" fill="#06cbe1" data-fill-palette-color="accent"></path><path d="M8.239 58.836c6.803-0.211 23.739-0.59 32.719-2.534A55.803 55.803 0 0 0 62.586 45.963c0.032 0.053 0.055 0.103 0.093 0.158 0.429 0.621 1.042 1.509 1.834 1.614 0.667 0.089 1.625-0.777 3.081-2.83A38.237 38.237 0 0 0 71.65 37.452c1.021-2.684 1.631-5.033 0.786-5.775s-1.92-1.077-5.163 0.58S57.732 37.54 57.015 38.42a2.078 2.078 0 0 0-0.579 1.403 2.279 2.279 0 0 0 1.119 1.909 1.479 1.479 0 0 0 0.477 0.192 51.312 51.312 0 0 1-6.121 3.721 54.612 54.612 0 0 1-12.778 4.578c-11.65 2.813-26.807 3.4-29.096 3.504-1.346 0.062-4.35 0.391-5.099 3.076C4.354 58.901 6.846 58.879 8.239 58.836Z" fill="#06cbe1" data-fill-palette-color="accent"></path><path d="M8.186 68.414c0.98-0.024 19.297 0.457 23.25 0.393a93.937 93.937 0 0 0 12.581-1.065A68.627 68.627 0 0 0 58.677 64.21a25.323 25.323 0 0 0 4.962-2.491 2.635 2.635 0 0 0 0.19 0.489c0.344 0.672 0.835 1.633 1.607 1.841 0.65 0.175 1.712-0.558 3.426-2.402a38.236 38.236 0 0 0 4.997-6.857c1.364-2.527 2.276-4.776 1.535-5.623s-1.762-1.32-5.194-0.1S60.049 53.053 59.223 53.832a2.078 2.078 0 0 0-0.758 1.315 2.279 2.279 0 0 0 0.86 2.039 2.326 2.326 0 0 0 0.951 0.406 75.603 75.603 0 0 1-15.437 4.634 88.609 88.609 0 0 1-15.29 1.403c-4.68-0.006-7.231-0.417-12.67-0.089a69.663 69.663 0 0 0-8.717 0.807c-1.621 0.419-2.131 1.964-2.444 2.971S7.207 68.438 8.186 68.414Z" fill="#06cbe1" data-fill-palette-color="accent"></path></svg></g></svg></g></svg></g></svg></g></svg></g></svg></g><defs></defs></svg><rect width="95.481" height="80.78600701507757" fill="none" stroke="none" visibility="hidden"></rect></g></svg></g></svg>