<svg xmlns="http://www.w3.org/2000/svg" version="1.1" xmlns:xlink="http://www.w3.org/1999/xlink" xmlns:svgjs="http://svgjs.dev/svgjs" width="1000" height="1000" viewBox="0 0 1000 1000"><rect width="1000" height="1000" fill="#ffffff"></rect><g transform="matrix(0.7,0,0,0.7,149.57577318874183,440.52423971518976)"><svg viewBox="0 0 396 68" data-background-color="#ffffff" preserveAspectRatio="xMidYMid meet" height="171" width="1000" xmlns="http://www.w3.org/2000/svg" xmlns:xlink="http://www.w3.org/1999/xlink"><g id="tight-bounds" transform="matrix(1,0,0,1,0.2400036157189902,-0.2126006736249053)"><svg viewBox="0 0 395.52 68.42480191848952" height="68.42480191848952" width="395.52"><g><svg viewBox="0 0 523.6451500868876 90.5904016744362" height="68.42480191848952" width="395.52"><g><rect width="3.376795769842818" height="78.66026194596485" x="115.90857481483849" y="5.965069864235673" fill="#06cbe1" opacity="1" stroke-width="0" stroke="transparent" fill-opacity="1" class="rect-o-0" data-fill-palette-color="primary" rx="1%" id="o-0" data-palette-color="#06cbe1"></rect></g><g transform="matrix(1,0,0,1,128.12515008688763,12.520091693066078)"><svg viewBox="0 0 395.52 65.55021828830404" height="65.55021828830404" width="395.52"><g id="textblocktransform"><svg viewBox="0 0 395.52 65.55021828830404" height="65.55021828830404" width="395.52" id="textblock"><g><svg viewBox="0 0 395.52 37.44463436438405" height="37.44463436438405" width="395.52"><g transform="matrix(1,0,0,1,0,0)"><svg width="395.52" viewBox="1.5 -38.04999923706055 559.239990234375 52.94999694824219" height="37.44463436438405" data-palette-color="#06cbe1"><path d="M16.5 0.3L16.5 0.3Q8.75 0.3 5.13-3.65 1.5-7.6 1.5-14.08 1.5-20.55 3.73-25.88 5.95-31.2 10.35-34.63 14.75-38.05 19.88-38.05 25-38.05 27.93-35.58 30.85-33.1 30.85-28.93 30.85-24.75 28.28-22 25.7-19.25 22.25-19.25 18.8-19.25 16.9-20.78 15-22.3 15-24.03 15-25.75 16.38-26.73 17.75-27.7 20.4-27.7L20.4-27.7Q19.75-27.05 19.75-25.98 19.75-24.9 20.4-24.1 21.05-23.3 22.4-23.3 23.75-23.3 25.1-24.73 26.45-26.15 26.45-28.5 26.45-30.85 25.03-32.25 23.6-33.65 21-33.65L21-33.65Q17.6-33.65 14.83-30.9 12.05-28.15 10.6-23.9 9.15-19.65 9.15-14.95L9.15-14.95Q9.15-10.9 10.9-7.8L10.9-7.8Q11.8-6.2 13.58-5.25 15.35-4.3 17.75-4.3L17.75-4.3Q21.85-4.3 25.65-6.93 29.45-9.55 32.05-13.7L32.05-13.7 33.75-10.65Q30.8-5.85 26.35-2.78 21.9 0.3 16.5 0.3ZM44.05-5.7L44.05-5.7 45.25-16.75Q45.25-18.1 44.55-19 43.85-19.9 42.3-19.9 40.75-19.9 39.67-18.68 38.6-17.45 38.1-15.45L38.1-15.45Q37.75-12.6 37.05-7.13 36.35-1.65 36.15 0L36.15 0 29.5 0Q33.1-30.65 33.85-37.65L33.85-37.65Q34.9-38.05 36.7-38.05L36.7-38.05Q40.6-38.05 40.6-35.75L40.6-35.75 40.6-35.45Q39.75-27.6 38.8-21.65L38.8-21.65Q41.45-24.05 44.8-24.05 48.15-24.05 50.1-22.35 52.05-20.65 52.05-18.05L52.05-18.05Q52.05-17.35 51.75-15.45L51.75-15.45Q50.6-7.95 50.6-6.65L50.6-6.65Q50.6-4.3 52.15-4.3L52.15-4.3Q53.45-4.3 54.92-6.03 56.4-7.75 57.3-11.35L57.3-11.35Q59-9.55 59.35-8.5L59.35-8.5Q56.75 0.2 50.15 0.2L50.15 0.2Q47.05 0.2 45.55-1.7 44.05-3.6 44.05-5.7ZM64.55-11.2Q67.64-11.85 69.17-13.7 70.69-15.55 70.69-17.28 70.69-19 69.77-19.63 68.84-20.25 67.75-20.25L67.75-20.25Q65.39-20.25 63.62-17.63 61.84-15 61.84-11.38 61.84-7.75 63.57-5.98 65.3-4.2 67.84-4.2L67.84-4.2Q71.59-4.2 75.05-6.8 78.5-9.4 80.64-13.6L80.64-13.6Q81.75-12.55 82.64-11L82.64-11Q81-7.25 76.8-3.65L76.8-3.65Q74.69-1.9 71.82-0.8 68.94 0.3 65.89 0.3L65.89 0.3Q60.89 0.3 57.99-2.75L57.99-2.75Q54.89-6.05 54.89-11.2 54.89-16.35 58.77-20.2 62.64-24.05 68.05-24.05L68.05-24.05Q71.89-24.05 74.3-22.38 76.69-20.7 76.75-17.85L76.75-17.85Q76.75-14 73.67-11.6 70.59-9.2 65.25-8.25L65.25-8.25 64.55-11.2ZM92.79-5.6L92.79-5.6 93.99-16.75Q93.99-18.1 93.29-19 92.59-19.9 90.97-19.9 89.34-19.9 88.22-18.48 87.09-17.05 86.79-14.9L86.79-14.9Q84.99-1.2 84.89 0L84.89 0 78.14 0 80.89-23.55Q82.99-24.1 84.09-24.1L84.09-24.1Q87.44-24.1 87.59-21.65L87.59-21.65Q90.04-24.05 93.47-24.05 96.89-24.05 98.84-22.35 100.79-20.65 100.79-18.05L100.79-18.05Q100.79-17.35 100.49-15.4L100.49-15.4Q99.34-7.8 99.34-6.55L99.34-6.55Q99.34-4.25 100.89-4.25L100.89-4.25Q104.29-4.25 106.04-11.35L106.04-11.35Q107.74-9.55 108.09-8.5L108.09-8.5Q105.44 0.3 98.89 0.3L98.89 0.3Q95.79 0.3 94.29-1.6 92.79-3.5 92.79-5.6ZM117.94-24.05L117.94-24.05Q120.69-24.05 122.99-23.15L122.99-23.15Q124.54-24.1 126.24-24.1 127.94-24.1 128.94-23.65L128.94-23.65 127.14-9.55Q130.84-12.4 132.74-14.75L132.74-14.75 134.19-11.7Q131.34-8.7 126.59-5.3L126.59-5.3 125.24 5.15Q124.69 9.85 122.17 12.38 119.64 14.9 115.64 14.9L115.64 14.9Q113.34 14.9 111.14 13.4L111.14 13.4Q108.84 11.8 108.84 8.25L108.84 8.25Q108.84 3.9 112.99 0.3L112.99 0.3Q109.44 0.05 106.89-2.65 104.34-5.35 104.34-9.7L104.34-9.7Q104.34-16.25 108.19-20.15 112.04-24.05 117.94-24.05ZM118.69-20.15L118.69-20.15Q115.49-20.15 113.62-17.73 111.74-15.3 111.39-10.5L111.39-10.5Q111.34-10.05 111.34-9.65L111.34-9.65Q111.34-7.2 112.52-5.75 113.69-4.3 115.54-4.3L115.54-4.3Q118.69-4.3 120.29-8.7L120.29-8.7 121.54-19.55Q119.99-20.15 118.69-20.15ZM112.69 7.5L112.69 7.5Q112.69 8.85 113.47 9.63 114.24 10.4 115.24 10.4L115.24 10.4Q118.04 10.4 118.49 6.85L118.49 6.85 119.34-0.65Q112.69 3.3 112.69 7.5ZM150.19-36.05Q150.54-36.9 151.76-37.48 152.99-38.05 154.71-38.05 156.44-38.05 157.29-37.55L157.29-37.55Q156.79-33.65 155.69-25.3L155.69-25.3Q153.39-7.85 153.39-6.08 153.39-4.3 154.89-4.3L154.89-4.3Q156.19-4.3 157.59-5.93 158.99-7.55 160.14-11.25L160.14-11.25Q161.54-9.9 162.09-8.3L162.09-8.3Q160.29-2.35 156.44-0.6L156.44-0.6Q154.69 0.25 153.14 0.25L153.14 0.25Q148.69 0.25 147.19-2.95L147.19-2.95Q144.59 0.3 140.54 0.3 136.49 0.3 133.71-2.45 130.94-5.2 130.94-9.7L130.94-9.7Q130.94-16.25 134.79-20.15 138.64-24.05 144.54-24.05L144.54-24.05Q144.69-24.05 144.84-24.05L144.84-24.05Q146.89-24.05 148.69-23.45L148.69-23.45 150.19-36.05ZM145.29-20.15L145.29-20.15Q142.09-20.15 140.21-17.73 138.34-15.3 137.99-10.5L137.99-10.5Q137.94-10.05 137.94-9.65L137.94-9.65Q137.94-7.2 139.11-5.75 140.29-4.3 142.14-4.3L142.14-4.3Q145.29-4.3 146.89-8.75L146.89-8.75 148.19-19.5Q146.54-20.15 145.29-20.15ZM180.79-23.55L180.79-23.55Q178.74-7.35 178.74-6.3L178.74-6.3Q178.74-4.3 180.19-4.3L180.19-4.3Q181.49-4.3 183.01-6.08 184.54-7.85 185.44-11.4L185.44-11.4Q187.09-9.6 187.44-8.6L187.44-8.6Q186.29-3.75 183.79-1.75 181.29 0.25 178.64 0.25L178.64 0.25Q174.28 0.25 172.78-3.1L172.78-3.1Q170.19 0.25 165.84 0.25L165.84 0.25Q162.24 0.25 160.28-1.55 158.34-3.35 158.34-6.25L158.34-6.25Q158.34-6.95 158.59-8.7L158.59-8.7Q159.74-18 160.34-23.5L160.34-23.5Q161.89-24.05 163.19-24.05 164.49-24.05 165.14-23.95 165.78-23.85 166.39-23.2 166.99-22.55 166.99-21.35L166.99-21.35 165.34-8.6Q165.24-8 165.24-7.5L165.24-7.5Q165.24-4.55 167.94-4.55L167.94-4.55Q170.44-4.55 172.09-7L172.09-7Q172.09-7.55 172.19-8.75L172.19-8.75 173.84-22.05Q174.19-22.9 175.34-23.48 176.49-24.05 178.21-24.05 179.94-24.05 180.79-23.55ZM209.68 0.3L209.68 0.3Q201.93 0.3 198.31-3.65 194.68-7.6 194.68-14.08 194.68-20.55 196.91-25.88 199.13-31.2 203.53-34.63 207.93-38.05 213.06-38.05 218.18-38.05 221.11-35.58 224.03-33.1 224.03-28.93 224.03-24.75 221.46-22 218.88-19.25 215.43-19.25 211.98-19.25 210.08-20.78 208.18-22.3 208.18-24.03 208.18-25.75 209.56-26.73 210.93-27.7 213.58-27.7L213.58-27.7Q212.93-27.05 212.93-25.98 212.93-24.9 213.58-24.1 214.23-23.3 215.58-23.3 216.93-23.3 218.28-24.73 219.63-26.15 219.63-28.5 219.63-30.85 218.21-32.25 216.78-33.65 214.18-33.65L214.18-33.65Q210.78-33.65 208-30.9 205.23-28.15 203.78-23.9 202.33-19.65 202.33-14.95L202.33-14.95Q202.33-10.9 204.08-7.8L204.08-7.8Q204.98-6.2 206.75-5.25 208.53-4.3 210.93-4.3L210.93-4.3Q215.03-4.3 218.83-6.93 222.63-9.55 225.23-13.7L225.23-13.7 226.93-10.65Q223.98-5.85 219.53-2.78 215.08 0.3 209.68 0.3ZM237.23-5.7L237.23-5.7 238.43-16.75Q238.43-18.1 237.73-19 237.03-19.9 235.48-19.9 233.93-19.9 232.85-18.68 231.78-17.45 231.28-15.45L231.28-15.45Q230.93-12.6 230.23-7.13 229.53-1.65 229.33 0L229.33 0 222.68 0Q226.28-30.65 227.03-37.65L227.03-37.65Q228.08-38.05 229.88-38.05L229.88-38.05Q233.78-38.05 233.78-35.75L233.78-35.75 233.78-35.45Q232.93-27.6 231.98-21.65L231.98-21.65Q234.63-24.05 237.98-24.05 241.33-24.05 243.28-22.35 245.23-20.65 245.23-18.05L245.23-18.05Q245.23-17.35 244.93-15.45L244.93-15.45Q243.78-7.95 243.78-6.65L243.78-6.65Q243.78-4.3 245.33-4.3L245.33-4.3Q246.63-4.3 248.1-6.03 249.58-7.75 250.48-11.35L250.48-11.35Q252.18-9.55 252.53-8.5L252.53-8.5Q249.93 0.2 243.33 0.2L243.33 0.2Q240.23 0.2 238.73-1.7 237.23-3.6 237.23-5.7ZM270.68 0.25L270.68 0.25Q266.07 0.25 264.57-2.95L264.57-2.95Q261.98 0.3 257.9 0.3 253.83 0.3 251.05-2.45 248.28-5.2 248.28-9.7L248.28-9.7Q248.28-16.25 252.13-20.15 255.97-24.05 261.88-24.05L261.88-24.05Q262.02-24.05 262.18-24.05L262.18-24.05Q264.68-24.05 266.77-23.2L266.77-23.2Q268.13-24.05 270.05-24.05 271.98-24.05 272.82-23.55L272.82-23.55Q272.38-19.85 271.88-16.28 271.38-12.7 271.18-11.2L271.18-11.2Q270.73-7.8 270.73-6.3L270.73-6.3Q270.73-4.3 272.32-4.3L272.32-4.3Q273.57-4.3 274.98-5.98 276.38-7.65 277.43-11.25L277.43-11.25Q278.88-9.95 279.43-8.35L279.43-8.35Q277.98-3.6 275.52-1.68 273.07 0.25 270.68 0.25ZM262.63-20.15L262.63-20.15Q259.43-20.15 257.55-17.73 255.68-15.3 255.33-10.5L255.33-10.5Q255.28-10.05 255.28-9.65L255.28-9.65Q255.28-7.2 256.45-5.75 257.63-4.3 259.48-4.3L259.48-4.3Q262.63-4.3 264.23-8.75L264.23-8.75 265.43-19.55Q263.98-20.15 262.63-20.15ZM290.07-5.6L290.07-5.6 291.27-16.75Q291.27-18.1 290.57-19 289.87-19.9 288.25-19.9 286.62-19.9 285.5-18.48 284.37-17.05 284.07-14.9L284.07-14.9Q282.27-1.2 282.17 0L282.17 0 275.42 0 278.17-23.55Q280.27-24.1 281.37-24.1L281.37-24.1Q284.72-24.1 284.87-21.65L284.87-21.65Q287.32-24.05 290.75-24.05 294.17-24.05 296.12-22.35 298.07-20.65 298.07-18.05L298.07-18.05Q298.07-17.35 297.77-15.4L297.77-15.4Q296.62-7.8 296.62-6.55L296.62-6.55Q296.62-4.25 298.17-4.25L298.17-4.25Q301.57-4.25 303.32-11.35L303.32-11.35Q305.02-9.55 305.37-8.5L305.37-8.5Q302.72 0.3 296.17 0.3L296.17 0.3Q293.07 0.3 291.57-1.6 290.07-3.5 290.07-5.6ZM315.22-24.05L315.22-24.05Q317.97-24.05 320.27-23.15L320.27-23.15Q321.82-24.1 323.52-24.1 325.22-24.1 326.22-23.65L326.22-23.65 324.42-9.55Q328.12-12.4 330.02-14.75L330.02-14.75 331.47-11.7Q328.62-8.7 323.87-5.3L323.87-5.3 322.52 5.15Q321.97 9.85 319.44 12.38 316.92 14.9 312.92 14.9L312.92 14.9Q310.62 14.9 308.42 13.4L308.42 13.4Q306.12 11.8 306.12 8.25L306.12 8.25Q306.12 3.9 310.27 0.3L310.27 0.3Q306.72 0.05 304.17-2.65 301.62-5.35 301.62-9.7L301.62-9.7Q301.62-16.25 305.47-20.15 309.32-24.05 315.22-24.05ZM315.97-20.15L315.97-20.15Q312.77-20.15 310.89-17.73 309.02-15.3 308.67-10.5L308.67-10.5Q308.62-10.05 308.62-9.65L308.62-9.65Q308.62-7.2 309.8-5.75 310.97-4.3 312.82-4.3L312.82-4.3Q315.97-4.3 317.57-8.7L317.57-8.7 318.82-19.55Q317.27-20.15 315.97-20.15ZM309.97 7.5L309.97 7.5Q309.97 8.85 310.75 9.63 311.52 10.4 312.52 10.4L312.52 10.4Q315.32 10.4 315.77 6.85L315.77 6.85 316.62-0.65Q309.97 3.3 309.97 7.5ZM353.12-6.15Q352.32-3.05 350.57-1.38 348.82 0.3 346.44 0.3 344.07 0.3 342.79-0.65 341.52-1.6 340.42-3.85L340.42-3.85 338.82-6.95 336.37-3.4Q333.97 0.05 331.37 0.05L331.37 0.05Q329.37 0.05 328.29-1.07 327.22-2.2 327.22-3.8L327.22-3.8Q327.22-6.5 329.34-8.03 331.47-9.55 333.87-9.55L333.87-9.55Q334.57-9.55 335.32-9.4L335.32-9.4 336.52-11.2Q332.92-17.7 332.57-18.25L332.57-18.25Q331.97-19.1 331.44-19.1 330.92-19.1 330.57-18.73 330.22-18.35 330.22-17.7 330.22-17.05 330.42-16.25L330.42-16.25 329.17-15.9Q328.72-16.5 328.42-17.63 328.12-18.75 328.12-19.4L328.12-19.4Q328.12-21.85 329.67-23.23 331.22-24.6 333.72-24.6L333.72-24.6Q336.77-24.6 338.47-21.3L338.47-21.3 340.52-17.35 343.27-21.65Q344.47-23.5 345.47-24.13 346.47-24.75 348.04-24.75 349.62-24.75 350.77-23.63 351.92-22.5 351.92-20.95L351.92-20.95Q351.92-18.3 350.02-16.85 348.12-15.4 345.82-15.4L345.82-15.4Q345.37-15.4 344.67-15.5L344.67-15.5 342.87-12.85Q346.27-6.25 346.62-5.6L346.62-5.6Q347.37-4.25 348.52-4.25L348.52-4.25Q350.07-4.25 350.97-7L350.97-7 351.17-7.6Q351.22-7.75 351.42-8.6L351.42-8.6 353.12-6.15ZM348.82-20.9L348.82-20.9Q348.32-20.9 347.89-20.38 347.47-19.85 345.92-17.4L345.92-17.4Q347.27-17.4 348.47-18.07 349.67-18.75 349.72-19.83 349.77-20.9 348.82-20.9ZM334.07-7.55L333.67-7.55Q332.27-7.55 330.97-6.85 329.67-6.15 329.67-5.1 329.67-4.05 330.57-4.05L330.57-4.05Q331.62-4.05 334.07-7.55L334.07-7.55ZM357.67-36.83Q358.82-38 360.47-38 362.12-38 363.29-36.83 364.47-35.65 364.47-34 364.47-32.35 363.29-31.2 362.12-30.05 360.47-30.05 358.82-30.05 357.67-31.2 356.52-32.35 356.52-34 356.52-35.65 357.67-36.83ZM355.62-22.15Q356.12-23.05 357.52-23.53 358.92-24 360.29-24 361.67-24 362.72-23.65L362.72-23.65Q360.77-8.6 360.77-8.45L360.77-8.45Q360.52-7.45 360.52-6.78 360.52-6.1 360.62-5.6L360.62-5.6Q360.82-4.3 362.44-4.3 364.07-4.3 365.44-6.43 366.82-8.55 367.52-11.25L367.52-11.25Q367.87-11.05 368.62-10.05 369.37-9.05 369.52-8.55L369.52-8.55Q368.52-4.55 366.12-2.1L366.12-2.1Q363.72 0.35 360.37 0.35 357.02 0.35 355.39-1.3 353.77-2.95 353.77-5.55L353.77-5.55Q353.77-6.1 353.82-6.7L353.82-6.7 355.62-22.15ZM387.66 0.25L387.66 0.25Q383.06 0.25 381.56-2.95L381.56-2.95Q378.96 0.3 374.89 0.3 370.81 0.3 368.04-2.45 365.26-5.2 365.26-9.7L365.26-9.7Q365.26-16.25 369.11-20.15 372.96-24.05 378.86-24.05L378.86-24.05Q379.01-24.05 379.16-24.05L379.16-24.05Q381.66-24.05 383.76-23.2L383.76-23.2Q385.11-24.05 387.04-24.05 388.96-24.05 389.81-23.55L389.81-23.55Q389.36-19.85 388.86-16.28 388.36-12.7 388.16-11.2L388.16-11.2Q387.71-7.8 387.71-6.3L387.71-6.3Q387.71-4.3 389.31-4.3L389.31-4.3Q390.56-4.3 391.96-5.98 393.36-7.65 394.41-11.25L394.41-11.25Q395.86-9.95 396.41-8.35L396.41-8.35Q394.96-3.6 392.51-1.68 390.06 0.25 387.66 0.25ZM379.61-20.15L379.61-20.15Q376.41-20.15 374.54-17.73 372.66-15.3 372.31-10.5L372.31-10.5Q372.26-10.05 372.26-9.65L372.26-9.65Q372.26-7.2 373.44-5.75 374.61-4.3 376.46-4.3L376.46-4.3Q379.61-4.3 381.21-8.75L381.21-8.75 382.41-19.55Q380.96-20.15 379.61-20.15ZM407.06-5.6L407.06-5.6 408.26-16.75Q408.26-18.1 407.56-19 406.86-19.9 405.24-19.9 403.61-19.9 402.49-18.48 401.36-17.05 401.06-14.9L401.06-14.9Q399.26-1.2 399.16 0L399.16 0 392.41 0 395.16-23.55Q397.26-24.1 398.36-24.1L398.36-24.1Q401.71-24.1 401.86-21.65L401.86-21.65Q404.31-24.05 407.74-24.05 411.16-24.05 413.11-22.35 415.06-20.65 415.06-18.05L415.06-18.05Q415.06-17.35 414.76-15.4L414.76-15.4Q413.61-7.8 413.61-6.55L413.61-6.55Q413.61-4.25 415.16-4.25L415.16-4.25Q418.56-4.25 420.31-11.35L420.31-11.35Q422.01-9.55 422.36-8.5L422.36-8.5Q419.71 0.3 413.16 0.3L413.16 0.3Q410.06 0.3 408.56-1.6 407.06-3.5 407.06-5.6ZM432.21-24.05L432.21-24.05Q434.96-24.05 437.26-23.15L437.26-23.15Q438.81-24.1 440.51-24.1 442.21-24.1 443.21-23.65L443.21-23.65 441.41-9.55Q445.11-12.4 447.01-14.75L447.01-14.75 448.46-11.7Q445.61-8.7 440.86-5.3L440.86-5.3 439.51 5.15Q438.96 9.85 436.43 12.38 433.91 14.9 429.91 14.9L429.91 14.9Q427.61 14.9 425.41 13.4L425.41 13.4Q423.11 11.8 423.11 8.25L423.11 8.25Q423.11 3.9 427.26 0.3L427.26 0.3Q423.71 0.05 421.16-2.65 418.61-5.35 418.61-9.7L418.61-9.7Q418.61-16.25 422.46-20.15 426.31-24.05 432.21-24.05ZM432.96-20.15L432.96-20.15Q429.76-20.15 427.88-17.73 426.01-15.3 425.66-10.5L425.66-10.5Q425.61-10.05 425.61-9.65L425.61-9.65Q425.61-7.2 426.78-5.75 427.96-4.3 429.81-4.3L429.81-4.3Q432.96-4.3 434.56-8.7L434.56-8.7 435.81-19.55Q434.26-20.15 432.96-20.15ZM426.96 7.5L426.96 7.5Q426.96 8.85 427.73 9.63 428.51 10.4 429.51 10.4L429.51 10.4Q432.31 10.4 432.76 6.85L432.76 6.85 433.61-0.65Q426.96 3.3 426.96 7.5ZM478.7-32.1Q477.65-29.8 475.6-28.3 473.55-26.8 471.15-26.8 468.75-26.8 467.23-28.2 465.7-29.6 465.7-32.35 465.7-35.1 468.15-36.58 470.6-38.05 473.9-38.05L473.9-38.05 493.75-38.05Q493.9-37.35 493.9-36.7L493.9-36.7Q493.9-35 492.8-33.55 491.7-32.1 489.45-32.1L489.45-32.1Q489.35-32.1 489.3-32.1L489.3-32.1 478.7-32.1ZM475.45-32.1L472.2-32.1Q470.35-32.1 470.35-30.8L470.35-30.8Q470.35-29.75 471.95-29.75L471.95-29.75Q472.7-29.75 473.73-30.4 474.75-31.05 475.45-32.1L475.45-32.1ZM482.55-9.6Q481.3 0.2 473.7 0.2L473.7 0.2Q471 0.2 469.38-1.45 467.75-3.1 467.75-5.6L467.75-5.6Q467.75-11.45 476.65-15.6L476.65-15.6 478.4-28.9Q480.45-30.2 483.15-30.2L483.15-30.2Q484.4-30.2 485.55-29.95L485.55-29.95 482.55-9.6ZM476.1-11.35Q471.45-8.65 471.45-6.15L471.45-6.15Q471.45-4.35 473.2-4.35L473.2-4.35Q475.2-4.35 475.7-8.2L475.7-8.2 476.1-11.35ZM494.35-11.2Q497.45-11.85 498.97-13.7 500.5-15.55 500.5-17.28 500.5-19 499.57-19.63 498.65-20.25 497.55-20.25L497.55-20.25Q495.2-20.25 493.42-17.63 491.65-15 491.65-11.38 491.65-7.75 493.37-5.98 495.1-4.2 497.65-4.2L497.65-4.2Q501.4-4.2 504.85-6.8 508.3-9.4 510.45-13.6L510.45-13.6Q511.55-12.55 512.45-11L512.45-11Q510.8-7.25 506.6-3.65L506.6-3.65Q504.5-1.9 501.62-0.8 498.75 0.3 495.7 0.3L495.7 0.3Q490.7 0.3 487.8-2.75L487.8-2.75Q484.7-6.05 484.7-11.2 484.7-16.35 488.57-20.2 492.45-24.05 497.85-24.05L497.85-24.05Q501.7-24.05 504.1-22.38 506.5-20.7 506.55-17.85L506.55-17.85Q506.55-14 503.47-11.6 500.4-9.2 495.05-8.25L495.05-8.25 494.35-11.2ZM524-16.95L524-16.95Q524-20.2 521.1-20.2L521.1-20.2Q518.95-20.2 517.25-17.75L517.25-17.75Q515.45-15.1 515.45-11.55 515.45-8 517.02-6.08 518.6-4.15 521.35-4.15L521.35-4.15Q524.65-4.15 528.32-6.85 532-9.55 534.25-13.55L534.25-13.55Q535.25-12.8 536.2-10.8L536.2-10.8Q534.75-7.9 530.8-4.3L530.8-4.3Q528.75-2.4 525.7-1.1L525.7-1.1Q522.4 0.3 519.1 0.3L519.1 0.3Q514.65 0.3 511.57-2.75 508.5-5.8 508.5-10.7L508.5-10.7Q508.5-16.65 512.5-20.35 516.5-24.05 521.45-24.05L521.45-24.05Q525.3-24.05 527.55-22.45 529.8-20.85 529.8-18.25L529.8-18.25Q529.8-16.55 528.6-15.3L528.6-15.3Q526.4-13.1 523.25-13.1L523.25-13.1Q524-15.6 524-16.95ZM545.44-5.7L545.44-5.7 546.64-16.75Q546.64-18.1 545.94-19 545.24-19.9 543.69-19.9 542.14-19.9 541.07-18.68 539.99-17.45 539.49-15.45L539.49-15.45Q539.14-12.6 538.44-7.13 537.74-1.65 537.54 0L537.54 0 530.89 0Q534.49-30.65 535.24-37.65L535.24-37.65Q536.29-38.05 538.09-38.05L538.09-38.05Q541.99-38.05 541.99-35.75L541.99-35.75 541.99-35.45Q541.14-27.6 540.19-21.65L540.19-21.65Q542.84-24.05 546.19-24.05 549.54-24.05 551.49-22.35 553.44-20.65 553.44-18.05L553.44-18.05Q553.44-17.35 553.14-15.45L553.14-15.45Q551.99-7.95 551.99-6.65L551.99-6.65Q551.99-4.3 553.54-4.3L553.54-4.3Q554.84-4.3 556.32-6.03 557.79-7.75 558.69-11.35L558.69-11.35Q560.39-9.55 560.74-8.5L560.74-8.5Q558.14 0.2 551.54 0.2L551.54 0.2Q548.44 0.2 546.94-1.7 545.44-3.6 545.44-5.7Z" opacity="1" transform="matrix(1,0,0,1,0,0)" fill="#06cbe1" class="wordmark-text-0" data-fill-palette-color="primary" id="text-0"></path></svg></g></svg></g><g transform="matrix(1,0,0,1,94.9248,46.284413866590384)"><svg viewBox="0 0 300.5952 19.265804421713657" height="19.265804421713657" width="300.5952"><g transform="matrix(1,0,0,1,0,0)"><svg width="300.5952" viewBox="4.880000114440918 -37.84000015258789 754.1500244140625 48.34000015258789" height="19.265804421713657" data-palette-color="#35c3d5"><path d="M29.3-13.43L29.54-13.43 29.54-11.72Q29.54-6.42 26.25-3.05L26.25-3.05Q22.78 0.49 17.21 0.49 11.65 0.49 8.18-3.05L8.18-3.05Q4.88-6.42 4.88-11.72L4.88-11.72 4.88-25.15Q4.88-30.44 8.18-33.81L8.18-33.81Q11.65-37.35 17.21-37.35L17.21-37.35Q22.97-37.35 26.26-33.81 29.54-30.27 29.54-25.63L29.54-25.63 24.9-23.44 24.66-23.44 24.66-25.15Q24.66-28.42 22.9-30.44L22.9-30.44Q20.73-32.96 17.21-32.96 13.7-32.96 11.52-30.44L11.52-30.44Q9.77-28.42 9.77-25.15L9.77-25.15 9.77-11.72Q9.77-8.45 11.52-6.42L11.52-6.42Q13.7-3.91 17.21-3.91 20.73-3.91 22.9-6.42L22.9-6.42Q24.66-8.45 24.66-11.23L24.66-11.23 29.3-13.43ZM39.55 0.98L39.3 0.98 39.3-35.64 43.94-37.84 44.19-37.84 44.19-25.27Q46.02-27.34 49.44-27.34L49.44-27.34Q53.66-27.34 56.54-24.58L56.54-24.58Q59.57-21.66 59.57-17.58L59.57-17.58 59.57-1.22 54.93 0.98 54.69 0.98 54.69-17.58Q54.69-20.39 53.16-21.69 51.63-23 49.44-23 47.24-23 45.71-21.69 44.19-20.39 44.19-17.58L44.19-17.58 44.19-1.22 39.55 0.98ZM85.44-17.58L85.44-1.22 80.81 0.98 80.56 0.98 80.56-1.59Q78.61 0.49 75.31 0.49L75.31 0.49Q70.75 0.49 68.21-2.27 65.67-5.03 65.67-8.79L65.67-8.79Q65.67-12.7 68.43-15.43L68.43-15.43Q71.09-18.07 75.31-18.07L75.31-18.07Q78.32-18.07 80.56-15.99L80.56-15.99Q80.56-20.31 79.05-21.68L79.05-21.68Q77.58-23 75.31-23L75.31-23 69.38-23 69.38-23.24 71.33-27.34 75.31-27.34Q79.58-27.34 82.42-24.58L82.42-24.58Q85.44-21.63 85.44-17.58L85.44-17.58ZM70.45-8.79L70.45-8.79Q70.45-6.62 71.77-5.2L71.77-5.2Q73.04-3.83 75.34-3.83L75.34-3.83Q77.73-3.83 79.05-5.22L79.05-5.22Q80.51-6.79 80.51-8.74L80.51-8.74Q80.51-10.94 79-12.3 77.49-13.67 75.36-13.67L75.36-13.67Q73.14-13.67 71.8-12.23 70.45-10.79 70.45-8.79ZM93.01 0.98L92.77 0.98 92.77-17.58Q92.77-21.61 95.79-24.58L95.79-24.58Q98.63-27.34 102.9-27.34L102.9-27.34Q107.12-27.34 110-24.58L110-24.58Q113.03-21.66 113.03-17.58L113.03-17.58 113.03-1.22 108.39 0.98 108.15 0.98 108.15-17.58Q108.15-20.39 106.62-21.69 105.1-23 102.9-23 100.7-23 99.17-21.69 97.65-20.39 97.65-17.58L97.65-17.58 97.65-1.22 93.01 0.98ZM125.23-17.58L125.23-9.28Q125.23-6.47 126.76-5.16 128.29-3.86 130.48-3.86 132.68-3.86 134.21-5.16 135.73-6.47 135.73-9.28L135.73-9.28 135.73-17.58Q135.73-20.39 134.21-21.69 132.68-23 130.48-23 128.29-23 126.76-21.69 125.23-20.39 125.23-17.58L125.23-17.58ZM120.35-9.28L120.35-9.28 120.35-17.58Q120.35-21.61 123.38-24.58L123.38-24.58Q126.21-27.34 130.48-27.34 134.76-27.34 137.59-24.58L137.59-24.58Q140.62-21.63 140.62-17.58L140.62-17.58 140.62 0.73Q140.62 4.76 137.59 7.74L137.59 7.74Q134.76 10.5 130.48 10.5L130.48 10.5 122.96 10.5 122.96 10.25 124.92 6.15 130.48 6.15Q132.68 6.15 134.21 4.85 135.73 3.54 135.73 0.73L135.73 0.73 135.73-1.59Q133.88 0.49 130.48 0.49L130.48 0.49Q126.26 0.49 123.38-2.27L123.38-2.27Q120.35-5.2 120.35-9.28ZM156.68-9.47L150.72 0.98 150.48 0.98 146.23-1.03 153.8-13.43 146.23-25.81 150.5-27.83 150.74-27.83 156.68-17.41 162.59-27.83 162.83-27.83 167.1-25.81 159.53-13.43 167.1-1.03 162.85 0.98 162.61 0.98 156.68-9.47ZM174.3-32.25Q173.45-33.13 173.45-34.36 173.45-35.6 174.3-36.47 175.16-37.35 176.38-37.35 177.6-37.35 178.45-36.47 179.31-35.6 179.31-34.36 179.31-33.13 178.45-32.25 177.6-31.37 176.38-31.37 175.16-31.37 174.3-32.25ZM174.18 0.98L173.94 0.98 173.94-25.63 178.57-27.83 178.82-27.83 178.82-1.22 174.18 0.98ZM205.92-17.58L205.92-1.22 201.28 0.98 201.03 0.98 201.03-1.59Q199.08 0.49 195.78 0.49L195.78 0.49Q191.22 0.49 188.68-2.27 186.14-5.03 186.14-8.79L186.14-8.79Q186.14-12.7 188.9-15.43L188.9-15.43Q191.56-18.07 195.78-18.07L195.78-18.07Q198.79-18.07 201.03-15.99L201.03-15.99Q201.03-20.31 199.52-21.68L199.52-21.68Q198.05-23 195.78-23L195.78-23 189.85-23 189.85-23.24 191.8-27.34 195.78-27.34Q200.06-27.34 202.89-24.58L202.89-24.58Q205.92-21.63 205.92-17.58L205.92-17.58ZM190.92-8.79L190.92-8.79Q190.92-6.62 192.24-5.2L192.24-5.2Q193.51-3.83 195.81-3.83L195.81-3.83Q198.2-3.83 199.52-5.22L199.52-5.22Q200.98-6.79 200.98-8.74L200.98-8.74Q200.98-10.94 199.47-12.3 197.96-13.67 195.83-13.67L195.83-13.67Q193.61-13.67 192.27-12.23 190.92-10.79 190.92-8.79ZM213.48 0.98L213.24 0.98 213.24-17.58Q213.24-21.61 216.26-24.58L216.26-24.58Q219.1-27.34 223.37-27.34L223.37-27.34Q227.59-27.34 230.47-24.58L230.47-24.58Q233.5-21.66 233.5-17.58L233.5-17.58 233.5-1.22 228.86 0.98 228.62 0.98 228.62-17.58Q228.62-20.39 227.09-21.69 225.57-23 223.37-23 221.17-23 219.65-21.69 218.12-20.39 218.12-17.58L218.12-17.58 218.12-1.22 213.48 0.98ZM245.71-17.58L245.71-9.28Q245.71-6.47 247.23-5.16 248.76-3.86 250.95-3.86 253.15-3.86 254.68-5.16 256.2-6.47 256.2-9.28L256.2-9.28 256.2-17.58Q256.2-20.39 254.68-21.69 253.15-23 250.95-23 248.76-23 247.23-21.69 245.71-20.39 245.71-17.58L245.71-17.58ZM240.82-9.28L240.82-9.28 240.82-17.58Q240.82-21.61 243.85-24.58L243.85-24.58Q246.68-27.34 250.95-27.34 255.23-27.34 258.06-24.58L258.06-24.58Q261.09-21.63 261.09-17.58L261.09-17.58 261.09 0.73Q261.09 4.76 258.06 7.74L258.06 7.74Q255.23 10.5 250.95 10.5L250.95 10.5 243.43 10.5 243.43 10.25 245.39 6.15 250.95 6.15Q253.15 6.15 254.68 4.85 256.2 3.54 256.2 0.73L256.2 0.73 256.2-1.59Q254.35 0.49 250.95 0.49L250.95 0.49Q246.73 0.49 243.85-2.27L243.85-2.27Q240.82-5.2 240.82-9.28ZM295.82 0.98L295.58 0.98 295.58-32.42 285.13-32.42 285.13-32.67 287.11-36.87 310.91-36.87 310.91-36.62 308.93-32.42 300.46-32.42 300.46-1.22 295.82 0.98ZM330.32-10.82L330.56-10.82 330.56-9.28Q330.56-5.25 327.53-2.27L327.53-2.27Q324.7 0.49 320.43 0.49L320.43 0.49Q316.21 0.49 313.32-2.27L313.32-2.27Q310.3-5.2 310.3-9.28L310.3-9.28 310.3-17.58Q310.3-21.61 313.32-24.58L313.32-24.58Q316.16-27.34 320.43-27.34L320.43-27.34Q324.58-27.34 327.53-24.58L327.53-24.58Q330.56-21.75 330.56-18.29L330.56-18.29 330.56-18.24 315.67-6.57Q316.03-5.74 316.69-5.18L316.69-5.18Q318.23-3.86 320.43-3.86 322.63-3.86 324.15-5.18 325.68-6.49 325.68-8.62L325.68-8.62 330.32-10.82ZM315.18-17.58L315.18-11.5 325.39-19.78Q324.99-20.97 324.16-21.68L324.16-21.68Q322.63-23 320.43-23 318.23-23 316.71-21.69 315.18-20.39 315.18-17.58L315.18-17.58ZM357.9-10.82L358.15-10.82 358.15-9.28Q358.15-5.25 355.12-2.27L355.12-2.27Q352.29 0.49 348.01 0.49L348.01 0.49Q343.79 0.49 340.91-2.27L340.91-2.27Q337.88-5.2 337.88-9.28L337.88-9.28 337.88-17.58Q337.88-21.63 340.91-24.58L340.91-24.58Q343.74-27.34 348.01-27.34L348.01-27.34Q352.19-27.34 355.12-24.58L355.12-24.58Q358.15-21.73 358.15-18.29L358.15-18.29 358.15-18.24 353.51-16.04 353.26-16.04 353.26-17.58Q353.26-20.39 351.74-21.69 350.21-23 348.01-23 345.82-23 344.29-21.69 342.77-20.39 342.77-17.58L342.77-17.58 342.77-9.28Q342.77-6.47 344.29-5.16 345.82-3.86 348.01-3.86 350.21-3.86 351.74-5.18 353.26-6.49 353.26-8.62L353.26-8.62 357.9-10.82ZM366.93 0.98L366.69 0.98 366.69-35.64 371.33-37.84 371.57-37.84 371.57-25.27Q373.4-27.34 376.82-27.34L376.82-27.34Q381.04-27.34 383.92-24.58L383.92-24.58Q386.95-21.66 386.95-17.58L386.95-17.58 386.95-1.22 382.31 0.98 382.07 0.98 382.07-17.58Q382.07-20.39 380.54-21.69 379.02-23 376.82-23 374.62-23 373.1-21.69 371.57-20.39 371.57-17.58L371.57-17.58 371.57-1.22 366.93 0.98ZM394.27-4.59L398.91-6.79 399.16-6.79Q401.82-4.17 401.82-0.83L401.82-0.83Q401.82 3.83 395.84 6.98L395.84 6.98 394.79 5.76Q397.55 2.95 397.55 0.49L397.55 0.49Q397.55-2.47 394.27-4.59L394.27-4.59ZM430.13 0.98L429.89 0.98 429.89-35.64 432.48-36.87 447.96-36.87 447.96-36.62 445.98-32.42 434.77-32.42 434.77-20.65 447.96-20.65 447.96-20.41 445.98-16.21 434.77-16.21 434.77-1.22 430.13 0.98ZM474.81-27.83L475.05-27.83 475.05-9.28Q475.05-5.25 472.03-2.27L472.03-2.27Q469.19 0.49 464.92 0.49L464.92 0.49Q460.7 0.49 457.82-2.27L457.82-2.27Q454.79-5.2 454.79-9.28L454.79-9.28 454.79-25.63 459.43-27.83 459.67-27.83 459.67-9.28Q459.67-6.47 461.2-5.16 462.72-3.86 464.92-3.86 467.12-3.86 468.64-5.16 470.17-6.47 470.17-9.28L470.17-9.28 470.17-25.63 474.81-27.83ZM485.84 0.98L485.6 0.98 485.6-22.41 479.32-22.41 479.32-22.66 481.3-26.86 485.6-26.86 485.6-35.64 490.24-37.84 490.48-37.84 490.48-26.86 496.75-26.86 496.75-26.61 494.78-22.41 490.48-22.41 490.48-1.22 485.84 0.98ZM521.04-27.83L521.29-27.83 521.29-9.28Q521.29-5.25 518.26-2.27L518.26-2.27Q515.43 0.49 511.16 0.49L511.16 0.49Q506.93 0.49 504.05-2.27L504.05-2.27Q501.02-5.2 501.02-9.28L501.02-9.28 501.02-25.63 505.66-27.83 505.91-27.83 505.91-9.28Q505.91-6.47 507.43-5.16 508.96-3.86 511.16-3.86 513.35-3.86 514.88-5.16 516.41-6.47 516.41-9.28L516.41-9.28 516.41-25.63 521.04-27.83ZM528.85 0.98L528.61 0.98 528.61-17.58Q528.61-21.61 531.64-24.58L531.64-24.58Q534.47-27.34 538.74-27.34L538.74-27.34 542.04-27.34 542.04-27.1 540.08-23 538.74-23Q536.54-23 535.02-21.69 533.49-20.39 533.49-17.58L533.49-17.58Q533.49-17.58 533.49-1.22L533.49-1.22 528.85 0.98ZM566.2-10.82L566.45-10.82 566.45-9.28Q566.45-5.25 563.42-2.27L563.42-2.27Q560.59 0.49 556.32 0.49L556.32 0.49Q552.09 0.49 549.21-2.27L549.21-2.27Q546.19-5.2 546.19-9.28L546.19-9.28 546.19-17.58Q546.19-21.61 549.21-24.58L549.21-24.58Q552.04-27.34 556.32-27.34L556.32-27.34Q560.47-27.34 563.42-24.58L563.42-24.58Q566.45-21.75 566.45-18.29L566.45-18.29 566.45-18.24 551.56-6.57Q551.92-5.74 552.58-5.18L552.58-5.18Q554.12-3.86 556.32-3.86 558.51-3.86 560.04-5.18 561.57-6.49 561.57-8.62L561.57-8.62 566.2-10.82ZM551.07-17.58L551.07-11.5 561.27-19.78Q560.88-20.97 560.05-21.68L560.05-21.68Q558.51-23 556.32-23 554.12-23 552.59-21.69 551.07-20.39 551.07-17.58L551.07-17.58ZM599.4-32.47L599.4-16.85 606.36-16.85Q609.56-16.85 612.05-19.36L612.05-19.36Q613.81-21.14 613.81-24.66L613.81-24.66Q613.81-27.93 612.05-29.96L612.05-29.96Q609.88-32.47 606.36-32.47L606.36-32.47 599.4-32.47ZM594.76 0.98L594.52 0.98 594.52-35.64 597.11-36.87 606.36-36.87Q611.93-36.87 615.39-33.33L615.39-33.33Q618.69-29.96 618.69-24.66L618.69-24.66Q618.69-19.34 615.39-15.99L615.39-15.99Q611.9-12.45 606.36-12.45L606.36-12.45 599.4-12.45 599.4-1.22 594.76 0.98ZM644.81-10.82L645.05-10.82 645.05-9.28Q645.05-5.25 642.03-2.27L642.03-2.27Q639.2 0.49 634.92 0.49L634.92 0.49Q630.7 0.49 627.82-2.27L627.82-2.27Q624.79-5.2 624.79-9.28L624.79-9.28 624.79-17.58Q624.79-21.61 627.82-24.58L627.82-24.58Q630.65-27.34 634.92-27.34L634.92-27.34Q639.07-27.34 642.03-24.58L642.03-24.58Q645.05-21.75 645.05-18.29L645.05-18.29 645.05-18.24 630.16-6.57Q630.53-5.74 631.19-5.18L631.19-5.18Q632.73-3.86 634.92-3.86 637.12-3.86 638.65-5.18 640.17-6.49 640.17-8.62L640.17-8.62 644.81-10.82ZM629.67-17.58L629.67-11.5 639.88-19.78Q639.49-20.97 638.66-21.68L638.66-21.68Q637.12-23 634.92-23 632.73-23 631.2-21.69 629.67-20.39 629.67-17.58L629.67-17.58ZM652.62 0.98L652.38 0.98 652.38-17.58Q652.38-21.61 655.4-24.58L655.4-24.58Q658.24-27.34 662.51-27.34L662.51-27.34 665.8-27.34 665.8-27.1 663.85-23 662.51-23Q660.31-23 658.79-21.69 657.26-20.39 657.26-17.58L657.26-17.58Q657.26-17.58 657.26-1.22L657.26-1.22 652.62 0.98ZM671.42 0.98L671.17 0.98 671.17-19.97 667.51-19.97 667.51-20.21 669.49-24.41 671.17-24.41 671.17-27.59Q671.17-31.62 674.2-34.59L674.2-34.59Q677.03-37.35 681.3-37.35L681.3-37.35 684.6-37.35 684.6-37.11 682.65-33.01 681.3-33.01Q679.11-33.01 677.57-31.69L677.57-31.69Q676.06-30.37 676.06-27.59L676.06-27.59 676.06-24.41 684.14-24.41 684.14-24.17 682.16-19.97 676.06-19.97 676.06-1.22 671.42 0.98ZM709.5-10.82L709.74-10.82 709.74-9.28Q709.74-5.25 706.72-2.27L706.72-2.27Q703.89 0.49 699.61 0.49L699.61 0.49Q695.39 0.49 692.51-2.27L692.51-2.27Q689.48-5.2 689.48-9.28L689.48-9.28 689.48-17.58Q689.48-21.61 692.51-24.58L692.51-24.58Q695.34-27.34 699.61-27.34L699.61-27.34Q703.76-27.34 706.72-24.58L706.72-24.58Q709.74-21.75 709.74-18.29L709.74-18.29 709.74-18.24 694.85-6.57Q695.22-5.74 695.88-5.18L695.88-5.18Q697.42-3.86 699.61-3.86 701.81-3.86 703.34-5.18 704.86-6.49 704.86-8.62L704.86-8.62 709.5-10.82ZM694.36-17.58L694.36-11.5 704.57-19.78Q704.18-20.97 703.35-21.68L703.35-21.68Q701.81-23 699.61-23 697.42-23 695.89-21.69 694.36-20.39 694.36-17.58L694.36-17.58ZM737.09-10.82L737.33-10.82 737.33-9.28Q737.33-5.25 734.3-2.27L734.3-2.27Q731.47 0.49 727.2 0.49L727.2 0.49Q722.97 0.49 720.09-2.27L720.09-2.27Q717.07-5.2 717.07-9.28L717.07-9.28 717.07-17.58Q717.07-21.63 720.09-24.58L720.09-24.58Q722.93-27.34 727.2-27.34L727.2-27.34Q731.37-27.34 734.3-24.58L734.3-24.58Q737.33-21.73 737.33-18.29L737.33-18.29 737.33-18.24 732.69-16.04 732.45-16.04 732.45-17.58Q732.45-20.39 730.92-21.69 729.4-23 727.2-23 725-23 723.47-21.69 721.95-20.39 721.95-17.58L721.95-17.58 721.95-9.28Q721.95-6.47 723.47-5.16 725-3.86 727.2-3.86 729.4-3.86 730.92-5.18 732.45-6.49 732.45-8.62L732.45-8.62 737.09-10.82ZM748.12 0.98L747.87 0.98 747.87-22.41 741.6-22.41 741.6-22.66 743.58-26.86 747.87-26.86 747.87-35.64 752.51-37.84 752.76-37.84 752.76-26.86 759.03-26.86 759.03-26.61 757.05-22.41 752.76-22.41 752.76-1.22 748.12 0.98Z" opacity="1" transform="matrix(1,0,0,1,0,0)" fill="#35c3d5" class="slogan-text-1" data-fill-palette-color="secondary" id="text-1"></path></svg></g></svg></g></svg></g></svg></g><g><svg viewBox="0 0 107.06879531263216 90.5904016744362" height="90.5904016744362" width="107.06879531263216"><g><svg xmlns="http://www.w3.org/2000/svg" data-name="Layer 1" viewBox="4.103344917297363 8.269787788391113 71.55545043945312 60.542728424072266" x="0" y="0" height="90.5904016744362" width="107.06879531263216" class="icon-icon-0" data-fill-palette-color="accent" id="icon-0"><path d="M4.217 45.662c-0.48 2.185 0.598 2.273 2.521 2.331s21.324-1.145 27.864-2.701c8.687-2.066 12.589-4.396 13.662-4.967 7.008-3.729 12.412-10.934 16.204-16.05 0.037 0.045 0.066 0.089 0.109 0.135 0.517 0.55 1.256 1.337 2.055 1.323 0.673-0.012 1.49-1.011 2.624-3.258A38.239 38.239 0 0 0 72.155 14.5c0.609-2.806 0.862-5.22-0.085-5.828s-2.059-0.779-5.018 1.344-8.646 6.647-9.224 7.625a2.078 2.078 0 0 0-0.363 1.473 2.279 2.279 0 0 0 1.391 1.72 2.804 2.804 0 0 0 1.223 0.125 40.76 40.76 0 0 1-12.4 12.213c-5.042 3.08-13.637 5.667-21.904 7.038-7.777 1.29-17.888 2.505-18.688 2.695A3.368 3.368 0 0 0 4.217 45.662Z" fill="#06cbe1" data-fill-palette-color="accent"></path><path d="M8.239 58.836c6.803-0.211 23.739-0.59 32.719-2.534A55.803 55.803 0 0 0 62.586 45.963c0.032 0.053 0.055 0.103 0.093 0.158 0.429 0.621 1.042 1.509 1.834 1.614 0.667 0.089 1.625-0.777 3.081-2.83A38.237 38.237 0 0 0 71.65 37.452c1.021-2.684 1.631-5.033 0.786-5.775s-1.92-1.077-5.163 0.58S57.732 37.54 57.015 38.42a2.078 2.078 0 0 0-0.579 1.403 2.279 2.279 0 0 0 1.119 1.909 1.479 1.479 0 0 0 0.477 0.192 51.312 51.312 0 0 1-6.121 3.721 54.612 54.612 0 0 1-12.778 4.578c-11.65 2.813-26.807 3.4-29.096 3.504-1.346 0.062-4.35 0.391-5.099 3.076C4.354 58.901 6.846 58.879 8.239 58.836Z" fill="#06cbe1" data-fill-palette-color="accent"></path><path d="M8.186 68.414c0.98-0.024 19.297 0.457 23.25 0.393a93.937 93.937 0 0 0 12.581-1.065A68.627 68.627 0 0 0 58.677 64.21a25.323 25.323 0 0 0 4.962-2.491 2.635 2.635 0 0 0 0.19 0.489c0.344 0.672 0.835 1.633 1.607 1.841 0.65 0.175 1.712-0.558 3.426-2.402a38.236 38.236 0 0 0 4.997-6.857c1.364-2.527 2.276-4.776 1.535-5.623s-1.762-1.32-5.194-0.1S60.049 53.053 59.223 53.832a2.078 2.078 0 0 0-0.758 1.315 2.279 2.279 0 0 0 0.86 2.039 2.326 2.326 0 0 0 0.951 0.406 75.603 75.603 0 0 1-15.437 4.634 88.609 88.609 0 0 1-15.29 1.403c-4.68-0.006-7.231-0.417-12.67-0.089a69.663 69.663 0 0 0-8.717 0.807c-1.621 0.419-2.131 1.964-2.444 2.971S7.207 68.438 8.186 68.414Z" fill="#06cbe1" data-fill-palette-color="accent"></path></svg></g></svg></g></svg></g><defs></defs></svg><rect width="395.52" height="68.42480191848952" fill="none" stroke="none" visibility="hidden"></rect></g></svg></g></svg>